<?xml version="1.0" standalone="no"?>
<!DOCTYPE svg PUBLIC "-//W3C//DTD SVG 20010904//EN"
 "http://www.w3.org/TR/2001/REC-SVG-20010904/DTD/svg10.dtd">
<svg version="1.0" xmlns="http://www.w3.org/2000/svg"
 width="80.000000pt" height="80.000000pt" viewBox="0 0 80.000000 80.000000"
 preserveAspectRatio="xMidYMid meet">
<metadata>
Created by potrace 1.14, written by Peter Selinger 2001-2017
</metadata>
<g transform="translate(0.000000,80.000000) scale(0.100000,-0.100000)"
fill="#000000" stroke="none">
<path d="M327 676 c-89 -32 -158 -103 -187 -190 -17 -53 -8 -154 20 -210 92
-192 362 -213 482 -38 72 104 70 238 -6 338 -72 96 -202 138 -309 100z m203
-41 c147 -75 186 -277 78 -400 -72 -82 -169 -111 -272 -81 -250 74 -235 447
21 505 54 12 120 2 173 -24z"/>
<path d="M399 563 c-1 -15 -1 -54 0 -85 l1 -58 -65 0 c-40 0 -67 -5 -71 -12
-5 -7 -9 -44 -9 -81 -1 -53 3 -70 15 -76 20 -10 271 -8 288 2 15 10 15 135 0
155 -6 7 -34 12 -69 12 l-59 0 -1 63 c-2 92 -3 100 -16 104 -8 3 -13 -6 -14
-24z"/>
<path d="M540 513 c-86 -80 -88 -86 -25 -81 29 2 46 -1 50 -9 7 -20 33 -15 40
7 9 27 -1 40 -31 40 -24 0 -24 1 -9 29 19 38 7 44 -25 14z"/>
<path d="M240 513 c0 -5 -11 -15 -25 -21 -28 -13 -32 -34 -11 -51 10 -8 16 -9
21 -1 3 5 16 10 28 9 21 -1 21 -1 -2 -8 -14 -4 -27 -13 -29 -20 -3 -9 1 -11 9
-7 8 3 22 9 32 12 20 7 23 30 5 38 -7 2 -2 4 11 3 22 -2 51 26 39 38 -11 11
-78 18 -78 8z"/>
<path d="M447 503 c-9 -8 -9 -58 0 -66 6 -6 53 54 53 67 0 8 -45 7 -53 -1z"/>
<path d="M349 493 c-1 -5 -1 -12 0 -16 1 -5 -2 -6 -7 -3 -11 6 -52 -21 -52
-35 0 -5 9 -9 19 -9 20 0 83 55 73 65 -8 8 -32 6 -33 -2z"/>
<path d="M362 458 c-7 -7 -12 -16 -12 -20 0 -12 28 -10 36 3 10 17 -10 31 -24
17z"/>
</g>
</svg>
